<svg xmlns="http://www.w3.org/2000/svg" xml:space="preserve" width="512" height="512" style="enable-background:new 0 0 512 512"><path d="M470.55 111.57 313.24 36.63a111.49 111.49 0 0 0-112.7-.96l-159.09 75.9c-.6.3-1.22.62-1.8.96a78.74 78.74 0 0 0 1.8 137.71l43.88 20.9v104.54a106.82 106.82 0 0 0 75.08 101.93 331.88 331.88 0 0 0 95.6 13.06c32.32.36 64.52-4 95.59-12.95a106.82 106.82 0 0 0 75.07-101.93V271.1l42.66-20.4v175.97a21.33 21.33 0 1 0 42.67 0v-256c.14-25.05-19.64-48.2-41.45-59.1zM384 375.8a64 64 0 0 1-44.8 61.07A289.96 289.96 0 0 1 256 448c-28.13.34-56.15-3.4-83.2-11.14A64 64 0 0 1 128 375.8v-84.31l70.76 33.7a112.47 112.47 0 0 0 57.71 15.77c19.33.14 38.33-4.98 54.98-14.8L384 291.47v84.3zm68.27-164.06-160.9 76.8a70.27 70.27 0 0 1-72.32-.96L61.63 212.7a36.1 36.1 0 0 1-.79-63.1l159.9-76.37a70.4 70.4 0 0 1 72.32.96l157.3 74.94a36.86 36.86 0 0 1 18.97 31.79 36.27 36.27 0 0 1-17.06 30.82z"/></svg>